<?xml version="1.0" encoding="UTF-8"?>
<!DOCTYPE svg PUBLIC "-//W3C//DTD SVG 1.1//EN" "http://www.w3.org/Graphics/SVG/1.1/DTD/svg11.dtd">
<svg xmlns="http://www.w3.org/2000/svg" version="1.1" width="190px" height="114px" style="shape-rendering:geometricPrecision; text-rendering:geometricPrecision; image-rendering:optimizeQuality; fill-rule:evenodd; clip-rule:evenodd" xmlns:xlink="http://www.w3.org/1999/xlink">
<g><path style="opacity:1" fill="#fdfdfd" d="M -0.5,-0.5 C 62.8333,-0.5 126.167,-0.5 189.5,-0.5C 189.5,37.5 189.5,75.5 189.5,113.5C 181.167,113.5 172.833,113.5 164.5,113.5C 164.5,111.167 164.5,108.833 164.5,106.5C 171.997,107.196 173.997,104.363 170.5,98C 167.854,97.5026 165.187,97.3359 162.5,97.5C 162.5,102.833 162.5,108.167 162.5,113.5C 159.5,113.5 156.5,113.5 153.5,113.5C 154.172,112.733 155.005,112.066 156,111.5C 156.828,106.798 156.662,102.131 155.5,97.5C 154.672,101.796 154.172,106.129 154,110.5C 151.667,111.833 149.333,111.833 147,110.5C 146.501,106.514 146.334,102.514 146.5,98.5C 146.44,97.9569 146.107,97.6236 145.5,97.5C 144.189,101.984 144.189,106.317 145.5,110.5C 146.167,111.5 146.833,112.5 147.5,113.5C 143.5,113.5 139.5,113.5 135.5,113.5C 136.731,112.282 137.898,110.949 139,109.5C 141.152,99.3164 137.319,95.8164 127.5,99C 124.371,104.477 125.037,109.311 129.5,113.5C 126.833,113.5 124.167,113.5 121.5,113.5C 120.177,111.529 118.844,109.529 117.5,107.5C 122.569,99.5323 120.236,96.199 110.5,97.5C 109.512,102.64 109.179,107.974 109.5,113.5C 107.167,113.5 104.833,113.5 102.5,113.5C 104.242,110.855 104.909,107.855 104.5,104.5C 102.396,104.201 100.396,104.534 98.5,105.5C 100.045,106.452 101.712,106.785 103.5,106.5C 103.532,111.213 101.199,112.713 96.5,111C 93.4241,108.388 92.7575,105.221 94.5,101.5C 97.2198,99.8893 100.22,99.056 103.5,99C 96.8333,95.6667 92.8333,97.6667 91.5,105C 91.6354,108.436 92.9687,111.269 95.5,113.5C 90.5,113.5 85.5,113.5 80.5,113.5C 80.0383,111.243 79.0383,109.243 77.5,107.5C 80.7283,104.485 81.0616,101.319 78.5,98C 75.5184,97.502 72.5184,97.3354 69.5,97.5C 69.5,102.833 69.5,108.167 69.5,113.5C 67.8333,113.5 66.1667,113.5 64.5,113.5C 62.7211,111.656 60.3878,110.99 57.5,111.5C 57.5,109.5 57.5,107.5 57.5,105.5C 66.8333,105.167 66.8333,104.833 57.5,104.5C 57.5,102.833 57.5,101.167 57.5,99.5C 59.924,99.8076 62.2573,99.4742 64.5,98.5C 61.5719,97.5159 58.5719,97.1826 55.5,97.5C 55.5,102.833 55.5,108.167 55.5,113.5C 52.5,113.5 49.5,113.5 46.5,113.5C 46.5,108.833 46.5,104.167 46.5,99.5C 54.3903,98.765 54.2236,98.0984 46,97.5C 37.7764,98.0984 37.6097,98.765 45.5,99.5C 45.5,104.167 45.5,108.833 45.5,113.5C 42.5,113.5 39.5,113.5 36.5,113.5C 36.8282,108.125 36.4948,102.792 35.5,97.5C 34.6735,101.459 34.1735,105.459 34,109.5C 31.5,105.833 29,102.167 26.5,98.5C 25.675,97.6143 24.675,97.281 23.5,97.5C 23.5,102.833 23.5,108.167 23.5,113.5C 21.5,113.5 19.5,113.5 17.5,113.5C 16.8333,92.1667 16.1667,92.1667 15.5,113.5C 10.1667,113.5 4.83333,113.5 -0.5,113.5C -0.5,75.5 -0.5,37.5 -0.5,-0.5 Z"/></g>
<g><path style="opacity:1" fill="#444442" d="M 90.5,1.5 C 91.492,8.98178 91.8254,16.6484 91.5,24.5C 78.0692,40.3538 64.4025,56.0205 50.5,71.5C 63.4057,47.9264 76.739,24.593 90.5,1.5 Z"/></g>
<g><path style="opacity:1" fill="#515351" d="M 90.5,1.5 C 91.1894,0.226406 92.0228,0.226406 93,1.5C 108.328,28.3134 123.828,54.98 139.5,81.5C 139.158,82.3382 138.492,82.6716 137.5,82.5C 129.797,78.6545 121.797,75.3212 113.5,72.5C 107.12,56.0124 99.7871,40.0124 91.5,24.5C 91.8254,16.6484 91.492,8.98178 90.5,1.5 Z"/></g>
<g><path style="opacity:1" fill="#5e5e5c" d="M 92.5,52.5 C 101.811,53.0116 101.811,53.8449 92.5,55C 89.7094,61.8799 92.0428,65.2132 99.5,65C 89.1015,65.4715 86.7682,61.3048 92.5,52.5 Z"/></g>
<g><path style="opacity:1" fill="#60605f" d="M 79.5,52.5 C 80.4959,52.4142 81.3292,52.7476 82,53.5C 83.6549,57.4318 84.6549,61.4318 85,65.5C 82,61.5 79,61.5 76,65.5C 76.5382,61.0626 77.7048,56.7292 79.5,52.5 Z"/></g>
<g><path style="opacity:1" fill="#f2f2f2" d="M 79.5,55.5 C 81.1852,56.1837 82.1852,57.517 82.5,59.5C 81.1667,60.8333 79.8333,60.8333 78.5,59.5C 79.2458,58.2638 79.5792,56.9305 79.5,55.5 Z"/></g>
<g><path style="opacity:1" fill="#9a9a98" d="M 50.5,71.5 C 50.5386,72.7562 50.0386,73.7562 49,74.5C 48.4153,73.0024 48.9153,72.0024 50.5,71.5 Z"/></g>
<g><path style="opacity:1" fill="#424240" d="M 113.5,72.5 C 121.797,75.3212 129.797,78.6545 137.5,82.5C 109.995,82.8312 82.6616,82.4979 55.5,81.5C 74.8408,78.4982 94.1742,75.4982 113.5,72.5 Z"/></g>
<g><path style="opacity:1" fill="#b0b0af" d="M 55.5,81.5 C 82.6616,82.4979 109.995,82.8312 137.5,82.5C 138.492,82.6716 139.158,82.3382 139.5,81.5C 140.043,81.56 140.376,81.8933 140.5,82.5C 110.506,83.6665 80.5056,83.8332 50.5,83C 52.0249,81.9914 53.6916,81.4914 55.5,81.5 Z"/></g>
<g><path style="opacity:1" fill="#535353" d="M 17.5,113.5 C 16.8333,113.5 16.1667,113.5 15.5,113.5C 16.1667,92.1667 16.8333,92.1667 17.5,113.5 Z"/></g>
<g><path style="opacity:1" fill="#4f4f4e" d="M 46.5,113.5 C 46.1667,113.5 45.8333,113.5 45.5,113.5C 45.5,108.833 45.5,104.167 45.5,99.5C 37.6097,98.765 37.7764,98.0984 46,97.5C 54.2236,98.0984 54.3903,98.765 46.5,99.5C 46.5,104.167 46.5,108.833 46.5,113.5 Z"/></g>
<g><path style="opacity:1" fill="#555555" d="M 64.5,113.5 C 61.5,113.5 58.5,113.5 55.5,113.5C 55.5,108.167 55.5,102.833 55.5,97.5C 58.5719,97.1826 61.5719,97.5159 64.5,98.5C 62.2573,99.4742 59.924,99.8076 57.5,99.5C 57.5,101.167 57.5,102.833 57.5,104.5C 66.8333,104.833 66.8333,105.167 57.5,105.5C 57.5,107.5 57.5,109.5 57.5,111.5C 60.3878,110.99 62.7211,111.656 64.5,113.5 Z"/></g>
<g><path style="opacity:1" fill="#898989" d="M 110.5,97.5 C 110.179,102.695 110.513,107.695 111.5,112.5C 111.5,112.833 111.5,113.167 111.5,113.5C 110.833,113.5 110.167,113.5 109.5,113.5C 109.179,107.974 109.512,102.64 110.5,97.5 Z"/></g>
<g><path style="opacity:1" fill="#757574" d="M 146.5,98.5 C 145.517,102.298 145.183,106.298 145.5,110.5C 144.189,106.317 144.189,101.984 145.5,97.5C 146.107,97.6236 146.44,97.9569 146.5,98.5 Z"/></g>
<g><path style="opacity:1" fill="#555554" d="M 164.5,113.5 C 163.833,113.5 163.167,113.5 162.5,113.5C 162.5,108.167 162.5,102.833 162.5,97.5C 165.187,97.3359 167.854,97.5026 170.5,98C 173.997,104.363 171.997,107.196 164.5,106.5C 164.5,108.833 164.5,111.167 164.5,113.5 Z"/></g>
<g><path style="opacity:1" fill="#575756" d="M 110.5,97.5 C 120.236,96.199 122.569,99.5323 117.5,107.5C 118.844,109.529 120.177,111.529 121.5,113.5C 120.5,113.5 119.5,113.5 118.5,113.5C 117.69,109.48 115.357,107.146 111.5,106.5C 111.5,108.5 111.5,110.5 111.5,112.5C 110.513,107.695 110.179,102.695 110.5,97.5 Z"/></g>
<g><path style="opacity:1" fill="#fafafa" d="M 112.5,99.5 C 114.467,99.2606 116.301,99.5939 118,100.5C 118.773,102.352 118.273,103.686 116.5,104.5C 115.167,104.5 113.833,104.5 112.5,104.5C 112.5,102.833 112.5,101.167 112.5,99.5 Z"/></g>
<g><path style="opacity:1" fill="#efefef" d="M 164.5,99.5 C 166.5,99.5 168.5,99.5 170.5,99.5C 171.5,104.5 169.5,106.5 164.5,105.5C 164.5,103.5 164.5,101.5 164.5,99.5 Z"/></g>
<g><path style="opacity:1" fill="#595958" d="M 36.5,113.5 C 35.5,113.5 34.5,113.5 33.5,113.5C 31.2721,109.388 28.7721,105.388 26,101.5C 25.5012,105.486 25.3345,109.486 25.5,113.5C 24.8333,113.5 24.1667,113.5 23.5,113.5C 23.5,108.167 23.5,102.833 23.5,97.5C 24.675,97.281 25.675,97.6143 26.5,98.5C 29,102.167 31.5,105.833 34,109.5C 34.1735,105.459 34.6735,101.459 35.5,97.5C 36.4948,102.792 36.8282,108.125 36.5,113.5 Z"/></g>
<g><path style="opacity:1" fill="#f8f8f8" d="M 33.5,113.5 C 30.8333,113.5 28.1667,113.5 25.5,113.5C 25.3345,109.486 25.5012,105.486 26,101.5C 28.7721,105.388 31.2721,109.388 33.5,113.5 Z"/></g>
<g><path style="opacity:1" fill="#b1b1b0" d="M 112.5,99.5 C 112.5,101.167 112.5,102.833 112.5,104.5C 113.833,104.5 115.167,104.5 116.5,104.5C 115.081,105.451 113.415,105.784 111.5,105.5C 111.205,103.265 111.539,101.265 112.5,99.5 Z"/></g>
<g><path style="opacity:1" fill="#efefef" d="M 118.5,113.5 C 116.167,113.5 113.833,113.5 111.5,113.5C 111.5,113.167 111.5,112.833 111.5,112.5C 111.5,110.5 111.5,108.5 111.5,106.5C 115.357,107.146 117.69,109.48 118.5,113.5 Z"/></g>
<g><path style="opacity:1" fill="#5b5b5a" d="M 80.5,113.5 C 79.8333,113.5 79.1667,113.5 78.5,113.5C 77.69,109.48 75.3567,107.146 71.5,106.5C 71.5,108.833 71.5,111.167 71.5,113.5C 70.8333,113.5 70.1667,113.5 69.5,113.5C 69.5,108.167 69.5,102.833 69.5,97.5C 72.5184,97.3354 75.5184,97.502 78.5,98C 81.0616,101.319 80.7283,104.485 77.5,107.5C 79.0383,109.243 80.0383,111.243 80.5,113.5 Z"/></g>
<g><path style="opacity:1" fill="#efefef" d="M 78.5,113.5 C 76.1667,113.5 73.8333,113.5 71.5,113.5C 71.5,111.167 71.5,108.833 71.5,106.5C 75.3567,107.146 77.69,109.48 78.5,113.5 Z"/></g>
<g><path style="opacity:1" fill="#b3b3b3" d="M 72.5,99.5 C 72.5,101.167 72.5,102.833 72.5,104.5C 73.8333,104.5 75.1667,104.5 76.5,104.5C 75.0813,105.451 73.4147,105.784 71.5,105.5C 71.2053,103.265 71.5386,101.265 72.5,99.5 Z"/></g>
<g><path style="opacity:1" fill="#f9f9f9" d="M 72.5,99.5 C 74.4672,99.2606 76.3005,99.5939 78,100.5C 78.7726,102.352 78.2726,103.686 76.5,104.5C 75.1667,104.5 73.8333,104.5 72.5,104.5C 72.5,102.833 72.5,101.167 72.5,99.5 Z"/></g>
<g><path style="opacity:1" fill="#585857" d="M 135.5,113.5 C 133.5,113.5 131.5,113.5 129.5,113.5C 125.037,109.311 124.371,104.477 127.5,99C 137.319,95.8164 141.152,99.3164 139,109.5C 137.898,110.949 136.731,112.282 135.5,113.5 Z"/></g>
<g><path style="opacity:1" fill="#f9f9f9" d="M 129.5,99.5 C 137.003,98.8526 139.503,102.186 137,109.5C 128.96,113.142 125.96,110.475 128,101.5C 128.717,100.956 129.217,100.289 129.5,99.5 Z"/></g>
<g><path style="opacity:1" fill="#5a5a5a" d="M 102.5,113.5 C 100.167,113.5 97.8333,113.5 95.5,113.5C 92.9687,111.269 91.6354,108.436 91.5,105C 92.8333,97.6667 96.8333,95.6667 103.5,99C 100.22,99.056 97.2198,99.8893 94.5,101.5C 92.7575,105.221 93.4241,108.388 96.5,111C 101.199,112.713 103.532,111.213 103.5,106.5C 101.712,106.785 100.045,106.452 98.5,105.5C 100.396,104.534 102.396,104.201 104.5,104.5C 104.909,107.855 104.242,110.855 102.5,113.5 Z"/></g>
<g><path style="opacity:1" fill="#595958" d="M 153.5,113.5 C 151.5,113.5 149.5,113.5 147.5,113.5C 146.833,112.5 146.167,111.5 145.5,110.5C 145.183,106.298 145.517,102.298 146.5,98.5C 146.334,102.514 146.501,106.514 147,110.5C 149.333,111.833 151.667,111.833 154,110.5C 154.172,106.129 154.672,101.796 155.5,97.5C 156.662,102.131 156.828,106.798 156,111.5C 155.005,112.066 154.172,112.733 153.5,113.5 Z"/></g>
</svg>
